<svg xmlns="http://www.w3.org/2000/svg" width="150" height="19" fill="none" viewBox="0 0 150 19"><path fill="#1D1D1B" d="M.18 18.54V.5h13.68v3.53H4.14v3.66h8.56v3.53H4.14v3.79H14v3.53H.18Z"/><path fill="#1D1D1B" d="M29.44 18.67h-3.52L18.58.5h4.4l4.76 12.7L32.49.5h4.3l-7.35 18.17Z"/><path fill="#1D1D1B" d="M42.17 18.54V.5h13.69v3.53h-9.72v3.66h8.55v3.53h-8.55v3.79h9.85v3.53H42.17Z"/><path fill="#1D1D1B" d="m73.15 18.54-3.89-5.77h-3.14v5.77h-3.99V.5h8.3c4.27 0 6.84 2.25 6.84 5.95v.05a5.6 5.6 0 0 1-3.89 5.6l4.43 6.44h-4.66Zm.08-11.88c0-1.7-1.2-2.58-3.14-2.58h-3.97v5.18h4.05c1.94 0 3.06-1.03 3.06-2.55v-.05Z"/><path fill="#1D1D1B" d="M97.65 18.54V6.76l-5.11 7.71h-.1l-5.06-7.63v11.7h-3.9V.5h4.3l4.77 7.63L97.32.5h4.3v18.04h-3.97Z"/><path fill="#1D1D1B" d="M117.37 18.85c-5.6 0-9.61-4.15-9.61-9.28v-.05c0-5.13 4.07-9.33 9.66-9.33 5.6 0 9.62 4.15 9.62 9.28v.05c0 5.13-4.07 9.33-9.67 9.33Zm5.5-9.33a5.5 5.5 0 0 0-5.49-5.67c-3.22 0-5.44 2.53-5.44 5.62v.05a5.5 5.5 0 0 0 5.5 5.67c3.2 0 5.44-2.52 5.44-5.62v-.05Z"/><path fill="#1D1D1B" d="M140.26 18.54h-7.07V.5h7.07c5.7 0 9.64 3.9 9.64 8.97v.05c0 5.08-3.94 9.02-9.64 9.02Zm5.47-9.02a5.2 5.2 0 0 0-5.47-5.43h-3.08v10.87h3.08c3.27 0 5.47-2.19 5.47-5.38v-.06Z"/></svg>