<svg xmlns="http://www.w3.org/2000/svg" fill="none" viewBox="0 0 878 746"> <path fill="#000" fill-rule="evenodd" d="M4.2 693.805V234.147l33.425-13.41v473.068H4.2zM589.804 693.805V115.127l33.425 13.48.001 565.198h-33.426zM257.858 693.805V131.991l33.425-13.571v575.385h-33.425zM843.462 693.805V217.576l33.425 13.551v462.678h-33.425z" clip-rule="evenodd"/> <path fill="#000" fill-rule="evenodd" d="M271.428 418.759H21.946v-33.426h249.482v33.426zM855.988 418.759H606.506v-33.426h249.482v33.426z" clip-rule="evenodd"/> <path fill="#A1A1A1" fill-rule="evenodd" d="M571.667 418.759H309.481v-33.426h262.186v33.426z" clip-rule="evenodd"/> <path fill="#A1A1A1" d="M440.51.805l-44.548 17.989L876.887 213.12v-36.044L440.51.805z"/> <path fill="#A1A1A1" d="M485.152 18.806L440.495.798 4.248 177.053v36.05L485.152 18.806z"/> <path fill="#A1A1A1" fill-rule="evenodd" d="M754.821 152.042V29.911h33.426v122.131h-33.426zM877.997 745.461H.112v-33.425h877.885v33.425z" clip-rule="evenodd"/> <script xmlns=""/></svg>